<svg width="42" height="42" viewBox="0 0 42 42" fill="none" xmlns="http://www.w3.org/2000/svg">
<mask id="mask0_5_32" style="mask-type:alpha" maskUnits="userSpaceOnUse" x="0" y="0" width="42" height="42">
<rect width="42" height="42" fill="#D9D9D9"/>
</mask>
<g mask="url(#mask0_5_32)">
<path d="M19.2501 35C18.2876 35 17.4636 34.6573 16.7782 33.9719C16.0928 33.2864 15.7501 32.4625 15.7501 31.5V28C15.7501 27.0375 16.0928 26.2135 16.7782 25.5281C17.4636 24.8427 18.2876 24.5 19.2501 24.5H22.7501C23.7126 24.5 24.5365 24.8427 25.2219 25.5281C25.9074 26.2135 26.2501 27.0375 26.2501 28V31.5C26.2501 32.4625 25.9074 33.2864 25.2219 33.9719C24.5365 34.6573 23.7126 35 22.7501 35H19.2501ZM19.2501 31.5H22.7501V28H19.2501V31.5ZM5.25007 21.7C4.84174 21.9916 4.40424 22.1083 3.93757 22.05C3.47091 21.9916 3.09174 21.7583 2.80007 21.35C2.50841 20.9416 2.39903 20.5041 2.47195 20.0375C2.54486 19.5708 2.77091 19.1916 3.15007 18.9L18.8563 6.86873C19.1772 6.6354 19.5199 6.4604 19.8844 6.34373C20.249 6.22707 20.6209 6.16873 21.0001 6.16873C21.3792 6.16873 21.7511 6.22707 22.1157 6.34373C22.4803 6.4604 22.823 6.6354 23.1438 6.86873L28.0001 10.5875V9.62498C28.0001 8.89582 28.2553 8.27602 28.7657 7.76561C29.2761 7.25519 29.8959 6.99998 30.6251 6.99998C31.3542 6.99998 31.974 7.25519 32.4844 7.76561C32.9949 8.27602 33.2501 8.89582 33.2501 9.62498V14.6125L38.8938 18.9C39.273 19.1916 39.4917 19.5708 39.5501 20.0375C39.6084 20.5041 39.4917 20.9416 39.2001 21.35C38.9084 21.7583 38.5292 21.9916 38.0626 22.05C37.5959 22.1083 37.1584 21.9916 36.7501 21.7L21.0001 9.66873L5.25007 21.7Z" fill="#1B1B1B"/>
</g>
</svg>
