<svg width="38" height="29" viewBox="0 0 38 29" fill="none" xmlns="http://www.w3.org/2000/svg">
<path d="M17.2501 29C16.2876 29 15.4636 28.6573 14.7782 27.9719C14.0928 27.2864 13.7501 26.4625 13.7501 25.5V22C13.7501 21.0375 14.0928 20.2135 14.7782 19.5281C15.4636 18.8427 16.2876 18.5 17.2501 18.5H20.7501C21.7126 18.5 22.5365 18.8427 23.2219 19.5281C23.9074 20.2135 24.2501 21.0375 24.2501 22V25.5C24.2501 26.4625 23.9074 27.2864 23.2219 27.9719C22.5365 28.6573 21.7126 29 20.7501 29H17.2501ZM17.2501 25.5H20.7501V22H17.2501V25.5ZM3.25007 15.7C2.84174 15.9916 2.40424 16.1083 1.93757 16.05C1.47091 15.9916 1.09174 15.7583 0.800073 15.35C0.508407 14.9416 0.399032 14.5041 0.471948 14.0375C0.544865 13.5708 0.770907 13.1916 1.15007 12.9L16.8563 0.868732C17.1772 0.635398 17.5199 0.460398 17.8844 0.343732C18.249 0.227065 18.6209 0.168732 19.0001 0.168732C19.3792 0.168732 19.7511 0.227065 20.1157 0.343732C20.4803 0.460398 20.823 0.635398 21.1438 0.868732L26.0001 4.58748V3.62498C26.0001 2.89582 26.2553 2.27602 26.7657 1.76561C27.2761 1.25519 27.8959 0.999982 28.6251 0.999982C29.3542 0.999982 29.974 1.25519 30.4845 1.76561C30.9949 2.27602 31.2501 2.89582 31.2501 3.62498V8.61248L36.8938 12.9C37.273 13.1916 37.4917 13.5708 37.5501 14.0375C37.6084 14.5041 37.4917 14.9416 37.2001 15.35C36.9084 15.7583 36.5292 15.9916 36.0626 16.05C35.5959 16.1083 35.1584 15.9916 34.7501 15.7L19.0001 3.66873L3.25007 15.7Z" fill="#EDF2F7"/>
</svg>
